<svg width="398" height="395" viewBox="0 0 398 395" fill="none"
    xmlns="http://www.w3.org/2000/svg">
    <g clip-path="url(#clip0_653_50)">
        <path d="M245.93 390.55C240.4 365.25 238.5 341.49 245.71 317.75C235.5 313.37 225.99 309.29 216.48 305.21C216.57 304.64 216.67 304.08 216.76 303.51C218.34 303.51 219.97 303.28 221.51 303.55C242.76 307.28 264.11 310.68 285.73 308.8C294.68 308.02 303.83 305.91 312.16 302.58C323.6 298 329.36 286.65 320.78 273.84C319.59 272.07 320.33 268.66 320.9 266.19C321.27 264.58 322.97 263.28 324.12 261.79C325.98 261.06 327.91 260.3 330.29 259.37C326.8 247.19 315.25 250.21 306.65 246.46C311.72 242.05 316.38 238.96 322.33 238.1C324.12 237.84 326.03 237.65 327.63 236.9C332.34 234.67 332.9 229.36 328.94 225.93C327.32 224.53 325.56 223.26 324.05 221.75C316.48 214.21 316.51 212.21 323.15 203.87C324.86 201.73 325.65 198.86 326.72 196.61C318.22 187.76 306.51 184.17 300.46 172.94C302 172.04 303.41 171.22 305.64 169.92C301.66 167.69 298.73 166.04 295.53 164.25C293.28 157.18 294.02 149.82 297.98 143.49C302.06 136.96 301.01 131.01 298.62 124.6C293 109.53 284.6 96.83 269.89 89.01C268.06 88.04 266.57 84.89 266.37 82.62C264.19 56.92 252.51 37.48 229.05 26.04C223.78 23.47 217.78 22.12 211.96 21.05C206 19.96 203.09 17.29 203.28 11.3C203.5 4.55002 208.03 -0.719982 213.89 0.100018C226.64 1.89002 239.51 3.49002 251.98 6.57002C274.44 12.12 295.03 22.26 313.7 35.83C329.94 47.62 344.86 60.74 356.81 77.39C367.84 92.76 377.5 108.69 384.3 126.21C394.44 152.35 399.09 179.62 397.47 207.67C396.19 229.82 391.58 251.35 383.14 272C371.17 301.29 353.2 326.17 329.53 347.16C310.11 364.39 287.97 376.72 263.72 385.5C258.09 387.54 252.18 388.82 245.94 390.58L245.93 390.55Z" fill="black"/>
        <path d="M170 95.2799C163.94 96.1599 160.02 94.0699 157.18 90.8599C148.3 80.8299 146.82 69.0299 151.44 56.8699C155.82 45.3499 164.75 38.6899 176.95 36.2199C205.36 30.4699 227.46 53.1599 231.81 78.2599C235.93 102 229.14 122.94 215.76 142.17C199.5 165.54 177.12 181.58 152.34 194.76C130.64 206.3 108.72 217.66 90.4 234.39C75.45 248.04 65.33 264.55 61.57 284.92C58.61 300.96 58.81 316.92 59.94 333.01C60.05 334.59 59.95 336.19 59.3 338.09C52.2 333.22 45.62 327.82 43.41 319.36C35.64 289.61 43.22 262.96 61.08 238.81C75.02 219.97 92.46 204.92 113.08 193.84C127.96 185.85 143.54 179.16 158.32 171.02C185.44 156.09 207.78 136.67 215.47 104.85C218.82 91.0199 218.32 77.2999 210.84 64.8999C208.34 60.7499 203.72 57.2399 199.27 55.0499C189.65 50.3199 179.64 48.9799 169.12 53.5899C157.02 58.8899 150.12 78.6499 165.69 91.7699C166.76 92.6699 167.86 93.5399 170 95.2799Z" fill="black"/>
        <path d="M178.46 230.63C155.5 283.85 153.9 337.95 171.13 394.1C165.56 393.17 160.99 392.28 156.39 391.68C144.15 390.07 142.73 388.8 142.27 376.71C141.75 363.1 140.82 349.45 141.35 335.87C142.55 305.13 147.37 275.11 163.07 247.91C166.2 242.48 170.13 237.51 173.81 232.41C174.5 231.46 175.71 230.88 176.68 230.13C177.28 230.3 177.87 230.47 178.47 230.64L178.46 230.63Z" fill="black"/>
        <path d="M3.20999 227.18C2.60999 225.72 1.65999 224.31 1.48999 222.8C0.939992 218.02 1.03999 213.15 0.229992 208.43C-0.940008 201.52 2.38999 196.4 6.65999 192.01C18.11 180.24 29.45 168.3 41.7 157.41C63.05 138.43 87.75 124.96 115.02 116.44C122.57 114.08 130.45 112.78 138.2 111.09C139.3 110.85 140.54 111.2 141.71 111.28L141.93 112.75C138.18 114.1 134.41 115.41 130.68 116.79C111.79 123.81 95.35 134.98 79.86 147.54C57.08 166.01 36.95 187.13 18.81 210.15C15.21 214.71 11.46 219.16 7.94999 223.79C6.86999 225.22 6.35999 227.08 5.58999 228.74C4.79999 228.22 4.01999 227.69 3.22999 227.17L3.20999 227.18Z" fill="black"/>
        <path d="M94.71 365.23C86.94 364.73 83.25 359.84 84.09 352.88C85.88 338.04 88.87 323.5 94.15 309.49C102.61 287.06 114.54 266.71 130.72 248.95C132.32 247.19 134.52 245.97 137.11 244.89C109.71 280.46 98.51 321.63 94.72 365.23H94.71Z" fill="black"/>
        <path d="M40.65 77.73C45.93 71.45 51.2 65.17 57.06 58.19C81.41 57.79 104.35 64.05 125.19 78.42C97.35 68.94 69.73 71.04 42.17 79.62L40.66 77.73H40.65Z" fill="black"/>
        <path d="M205.52 31.35C194.34 24.24 182.37 18.95 169.38 17.06C156.56 15.19 143.59 14.42 130.36 13.14C130.82 12.44 131.19 11.16 131.83 11C143.68 8.00999 155.53 4.94999 167.49 2.45999C169.88 1.95999 173.19 3.14999 175.32 4.64999C184.78 11.33 194.01 18.35 203.2 25.4C204.66 26.52 205.53 28.39 206.68 29.92C206.29 30.4 205.91 30.88 205.52 31.36V31.35Z" fill="black"/>
    </g>
    <defs>
        <clipPath id="clip0_653_50">
            <rect width="397.78" height="394.1" fill="white"/>
        </clipPath>
    </defs>
</svg>
